<?xml version="1.0" standalone="no"?>
<!DOCTYPE svg PUBLIC "-//W3C//DTD SVG 20010904//EN"
 "http://www.w3.org/TR/2001/REC-SVG-20010904/DTD/svg10.dtd">
<svg version="1.0" xmlns="http://www.w3.org/2000/svg"
 width="283.000000pt" height="283.000000pt" viewBox="0 0 283.000000 283.000000"
 preserveAspectRatio="xMidYMid meet">
<metadata>
Created by potrace 1.11, written by Peter Selinger 2001-2013
</metadata>
<g transform="translate(0.000000,283.000000) scale(0.100000,-0.100000)"
fill="#000000" stroke="none">
<path d="M0 1417 l0 -1414 1415 0 1415 0 0 281 0 282 -1130 -1 -1130 0 -1 25
c-1 14 -2 393 -2 843 -2 719 0 820 13 826 8 4 518 6 1133 6 l1117 -1 0 283 0
283 -1415 0 -1415 0 0 -1413z"/>
<path d="M1647 2086 c-2 -6 -3 -110 -1 -232 1 -175 5 -226 17 -250 32 -62 79
-87 175 -90 77 -3 120 7 165 38 53 38 58 61 58 281 1 111 0 216 0 233 -1 31
-1 31 -56 31 -30 -1 -56 -3 -56 -6 -1 -3 -2 -102 -3 -220 l-2 -214 -28 -24
c-36 -31 -97 -29 -128 4 -21 22 -22 32 -22 241 l-1 217 -57 1 c-32 0 -59 -4
-61 -10z"/>
<path d="M2179 2046 c0 -71 0 -443 0 -488 l1 -38 56 0 55 0 -3 180 c-2 99 -1
180 3 180 3 0 41 -81 85 -180 l79 -179 63 -1 62 0 0 288 0 288 -52 0 -53 -1
-5 -40 c-3 -22 -3 -96 0 -163 3 -68 2 -126 -1 -128 -4 -2 -15 15 -24 39 -9 23
-44 99 -77 168 l-60 125 -64 1 -64 1 -1 -52z"/>
<path d="M2710 2059 c-1 -22 -1 -113 -1 -204 0 -91 0 -203 1 -250 l0 -85 60 0
60 0 0 288 0 289 -60 0 -60 0 0 -38z"/>
<path d="M2486 1448 c-31 -43 -13 -86 41 -102 34 -11 77 36 68 72 -12 54 -80
72 -109 30z"/>
<path d="M2668 1451 c-39 -39 -11 -104 43 -104 39 0 68 31 63 70 -5 50 -70 71
-106 34z"/>
<path d="M1650 1291 c0 -6 7 -40 16 -78 9 -37 17 -75 19 -83 2 -8 15 -64 30
-125 14 -60 28 -119 30 -130 3 -11 9 -38 14 -60 5 -22 12 -52 16 -67 5 -27 7
-28 74 -28 l69 0 7 43 c4 23 9 51 11 62 3 11 14 68 25 128 12 59 25 107 29
107 3 0 17 -51 29 -112 12 -62 28 -138 35 -168 l12 -55 66 -3 65 -3 21 88 c12
48 38 158 58 243 20 85 42 176 49 203 l14 47 -63 0 -63 0 -13 -62 c-7 -35 -14
-67 -16 -73 -9 -40 -33 -168 -39 -203 -8 -51 -12 -50 -21 2 -3 21 -8 48 -10
60 -6 27 -14 65 -18 91 -2 11 -12 57 -22 103 l-17 82 -63 0 c-40 0 -63 -4 -66
-12 -3 -7 -20 -86 -39 -175 -19 -90 -37 -163 -41 -163 -4 0 -10 17 -13 38 -3
20 -11 57 -16 82 -6 25 -13 54 -15 65 -2 11 -7 34 -11 50 -4 17 -7 32 -8 35 0
3 -4 22 -8 43 l-8 37 -59 0 c-33 0 -60 -4 -60 -9z"/>
<path d="M2417 1293 c-7 -15 -1 -438 7 -470 31 -131 310 -151 386 -27 18 29
20 51 20 268 l0 236 -60 0 -60 0 0 -219 c0 -249 -2 -258 -76 -268 -33 -4 -45
-1 -70 20 l-29 25 -1 214 c-1 117 -2 216 -3 221 0 4 -25 7 -55 7 -30 0 -57 -3
-59 -7z"/>
</g>
</svg>
